<?xml version="1.0" encoding="utf-8"?>
<svg id="icon-logo" viewBox="0 0 119.4 126" width="40px" height="40px">
  <path d="M117.3 32.6c-2.7-9.6-7.8-17-15.2-22.4C94.1 4.4 82.5 0 66.8 0H54.2C59 7.1 60 16.2 56.9 24.2h4.8c23 0 29.8 14.8 25.2 37.4-5.1 24.8-18.5 40.1-41.2 40.1H31L44.1 38c-9.5 4.6-20.8 3.1-28.7-4l-15 72.5c-1.4 7 .8 12 3.1 14.4s5.4 5 12.6 5h29.6c19.1 0 33.6-7.2 46.9-18.9 13-11.3 21.4-26.5 25.3-45.3 2.2-10.4 2-20.1-.6-29.1z" fill="#fff"></path>
  <ellipse class="logo" cx="33.3" cy="15.2" rx="15.1" ry="15.2" fill="#fff"></ellipse>
</svg>